<?xml version="1.0" encoding="UTF-8"?>
<svg xmlns="http://www.w3.org/2000/svg" width="200" height="200" viewBox="0 0 200 200">
  <g fill="none" stroke="#000" stroke-width="5" stroke-linecap="square" stroke-linejoin="miter" stroke-miterlimit="10">
    <path d="M 0.00 0.00 L 2.55 2.45 L 5.21 4.79 L 7.97 7.03 L 10.82 9.18 L 13.77 11.23 L 16.80 13.20 L 19.91 15.09 L 23.08 16.92 L 26.31 18.69 L 29.59 20.41 L 32.90 22.10 L 36.23 23.77 L 39.57 25.43 L 42.90 27.10 L 46.21 28.79 L 49.49 30.51 L 52.72 32.28 L 55.89 34.11 L 58.98 36.02 L 62.00 38.00 L 64.92 40.08 L 67.75 42.25 L 70.46 44.54 L 73.06 46.94 L 75.54 49.46 L 77.89 52.11 L 80.12 54.88 L 82.23 57.77 L 84.22 60.78 L 86.09 63.91 L 87.84 67.16 L 89.49 70.51 L 91.03 73.97 L 92.49 77.51 L 93.87 81.13 L 95.18 84.82 L 96.43 88.57 L 97.65 92.35 L 98.83 96.17 L 100.00 100.00 L 101.17 103.83 L 102.35 107.65 L 103.57 111.43 L 104.82 115.18 L 106.13 118.87 L 107.51 122.49 L 108.97 126.03 L 110.51 129.49 L 112.16 132.84 L 113.91 136.09 L 115.78 139.22 L 117.77 142.23 L 119.88 145.12 L 122.11 147.89 L 124.46 150.54 L 126.94 153.06 L 129.54 155.46 L 132.25 157.75 L 135.08 159.92 L 138.00 162.00 L 141.02 163.98 L 144.11 165.89 L 147.28 167.72 L 150.51 169.49 L 153.79 171.21 L 157.10 172.90 L 160.43 174.57 L 163.77 176.23 L 167.10 177.90 L 170.41 179.59 L 173.69 181.31 L 176.92 183.08 L 180.09 184.91 L 183.20 186.80 L 186.23 188.77 L 189.18 190.82 L 192.03 192.97 L 194.79 195.21 L 197.45 197.55 L 200.00 200.00" />
  </g>
</svg>
