<?xml version="1.0" encoding="UTF-8"?>
<svg xmlns="http://www.w3.org/2000/svg" width="200" height="200" viewBox="0 0 200 200">
  <g fill="none" stroke="#000" stroke-width="5" stroke-linecap="square" stroke-linejoin="miter" stroke-miterlimit="10">
    <path d="M 0.00 200.00 L 2.55 197.55 L 5.21 195.21 L 7.97 192.97 L 10.82 190.82 L 13.77 188.77 L 16.80 186.80 L 19.91 184.91 L 23.08 183.08 L 26.31 181.31 L 29.59 179.59 L 32.90 177.90 L 36.23 176.23 L 39.57 174.57 L 42.90 172.90 L 46.21 171.21 L 49.49 169.49 L 52.72 167.72 L 55.89 165.89 L 58.98 163.98 L 62.00 162.00 L 64.92 159.92 L 67.75 157.75 L 70.46 155.46 L 73.06 153.06 L 75.54 150.54 L 77.89 147.89 L 80.12 145.12 L 82.23 142.23 L 84.22 139.22 L 86.09 136.09 L 87.84 132.84 L 89.49 129.49 L 91.03 126.03 L 92.49 122.49 L 93.87 118.87 L 95.18 115.18 L 96.43 111.43 L 97.65 107.65 L 98.83 103.83 L 100.00 100.00 L 101.17 96.17 L 102.35 92.35 L 103.57 88.57 L 104.82 84.82 L 106.13 81.13 L 107.51 77.51 L 108.97 73.97 L 110.51 70.51 L 112.16 67.16 L 113.91 63.91 L 115.78 60.78 L 117.77 57.77 L 119.88 54.88 L 122.11 52.11 L 124.46 49.46 L 126.94 46.94 L 129.54 44.54 L 132.25 42.25 L 135.08 40.08 L 138.00 38.00 L 141.02 36.02 L 144.11 34.11 L 147.28 32.28 L 150.51 30.51 L 153.79 28.79 L 157.10 27.10 L 160.43 25.43 L 163.77 23.77 L 167.10 22.10 L 170.41 20.41 L 173.69 18.69 L 176.92 16.92 L 180.09 15.09 L 183.20 13.20 L 186.23 11.23 L 189.18 9.18 L 192.03 7.03 L 194.79 4.79 L 197.45 2.45 L 200.00 -0.00" />
  </g>
</svg>
