<?xml version="1.0" encoding="UTF-8"?>
<svg xmlns="http://www.w3.org/2000/svg" width="200" height="200" viewBox="0 0 200 200">
  <g fill="none" stroke="#000" stroke-width="5" stroke-linecap="square" stroke-linejoin="miter" stroke-miterlimit="10">
    <path d="M 0.00 62.00 L 1.67 62.05 L 3.33 62.21 L 5.00 62.47 L 6.67 62.83 L 8.33 63.29 L 10.00 63.86 L 11.67 64.52 L 13.33 65.29 L 15.00 66.14 L 16.67 67.09 L 18.33 68.13 L 20.00 69.26 L 21.67 70.47 L 23.33 71.76 L 25.00 73.13 L 26.67 74.57 L 28.33 76.09 L 30.00 77.66 L 31.67 79.30 L 33.33 81.00 L 35.00 82.75 L 36.67 84.54 L 38.33 86.38 L 40.00 88.26 L 41.67 90.16 L 43.33 92.10 L 45.00 94.06 L 46.67 96.03 L 48.33 98.01 L 50.00 100.00 L 51.67 101.99 L 53.33 103.97 L 55.00 105.94 L 56.67 107.90 L 58.33 109.84 L 60.00 111.74 L 61.67 113.62 L 63.33 115.46 L 65.00 117.25 L 66.67 119.00 L 68.33 120.70 L 70.00 122.34 L 71.67 123.91 L 73.33 125.43 L 75.00 126.87 L 76.67 128.24 L 78.33 129.53 L 80.00 130.74 L 81.67 131.87 L 83.33 132.91 L 85.00 133.86 L 86.67 134.71 L 88.33 135.48 L 90.00 136.14 L 91.67 136.71 L 93.33 137.17 L 95.00 137.53 L 96.67 137.79 L 98.33 137.95 L 100.00 138.00 L 101.67 137.95 L 103.33 137.79 L 105.00 137.53 L 106.67 137.17 L 108.33 136.71 L 110.00 136.14 L 111.67 135.48 L 113.33 134.71 L 115.00 133.86 L 116.67 132.91 L 118.33 131.87 L 120.00 130.74 L 121.67 129.53 L 123.33 128.24 L 125.00 126.87 L 126.67 125.43 L 128.33 123.91 L 130.00 122.34 L 131.67 120.70 L 133.33 119.00 L 135.00 117.25 L 136.67 115.46 L 138.33 113.62 L 140.00 111.74 L 141.67 109.84 L 143.33 107.90 L 145.00 105.94 L 146.67 103.97 L 148.33 101.99 L 150.00 100.00 L 151.67 98.01 L 153.33 96.03 L 155.00 94.06 L 156.67 92.10 L 158.33 90.16 L 160.00 88.26 L 161.67 86.38 L 163.33 84.54 L 165.00 82.75 L 166.67 81.00 L 168.33 79.30 L 170.00 77.66 L 171.67 76.09 L 173.33 74.57 L 175.00 73.13 L 176.67 71.76 L 178.33 70.47 L 180.00 69.26 L 181.67 68.13 L 183.33 67.09 L 185.00 66.14 L 186.67 65.29 L 188.33 64.52 L 190.00 63.86 L 191.67 63.29 L 193.33 62.83 L 195.00 62.47 L 196.67 62.21 L 198.33 62.05 L 200.00 62.00" />
  </g>
</svg>
