<?xml version="1.0" encoding="UTF-8"?>
<svg xmlns="http://www.w3.org/2000/svg" width="200" height="200" viewBox="0 0 200 200">
  <g fill="none" stroke="#000" stroke-width="5" stroke-linecap="square" stroke-linejoin="miter" stroke-miterlimit="10">
	<g transform="translate(100 100) scale(3.695 3.330) translate(-100 -100) translate(-2.99 -2.97)">
		<path vector-effect="non-scaling-stroke" d="M 106.00 100.00 L 106.11 100.39 L 106.19 100.80 L 106.25 101.22 L 106.28 101.65 L 106.28 102.09 L 106.24 102.53 L 106.18 102.98 L 106.08 103.43 L 105.95 103.88 L 105.79 104.33 L 105.59 104.77 L 105.36 105.21 L 105.10 105.63 L 104.80 106.04 L 104.47 106.44 L 104.11 106.82 L 103.72 107.18 L 103.30 107.52 L 102.86 107.83 L 102.38 108.11 L 101.88 108.37 L 101.36 108.59 L 100.82 108.78 L 100.26 108.94 L 99.68 109.06 L 99.08 109.15 L 98.48 109.19 L 97.86 109.19 L 97.24 109.15 L 96.62 109.07 L 95.99 108.95 L 95.37 108.78 L 94.75 108.57 L 94.14 108.31 L 93.54 108.02 L 92.96 107.68 L 92.39 107.29 L 91.84 106.87 L 91.32 106.40 L 90.82 105.90 L 90.36 105.36 L 89.92 104.78 L 89.52 104.17 L 89.16 103.52 L 88.84 102.85 L 88.55 102.15 L 88.32 101.42 L 88.13 100.68 L 87.99 99.91 L 87.89 99.13 L 87.85 98.34 L 87.86 97.54 L 87.93 96.73 L 88.05 95.93 L 88.22 95.12 L 88.45 94.32 L 88.73 93.53 L 89.07 92.75 L 89.46 91.99 L 89.90 91.25 L 90.40 90.53 L 90.94 89.84 L 91.54 89.19 L 92.18 88.56 L 92.87 87.98 L 93.60 87.44 L 94.37 86.94 L 95.18 86.49 L 96.02 86.09 L 96.90 85.74 L 97.80 85.45 L 98.73 85.22 L 99.68 85.04 L 100.65 84.93 L 101.63 84.88 L 102.61 84.90 L 103.61 84.98 L 104.60 85.12 L 105.59 85.33 L 106.57 85.61 L 107.54 85.95 L 108.49 86.36 L 109.42 86.84 L 110.32 87.37 L 111.20 87.97 L 112.04 88.63 L 112.83 89.35 L 113.59 90.13 L 114.30 90.95 L 114.96 91.83 L 115.57 92.76 L 116.11 93.73 L 116.60 94.74 L 117.02 95.78 L 117.38 96.86 L 117.67 97.97 L 117.88 99.11 L 118.03 100.26 L 118.09 101.42 L 118.09 102.60 L 118.00 103.78 L 117.84 104.96 L 117.60 106.14 L 117.28 107.30 L 116.89 108.45 L 116.42 109.58 L 115.87 110.69 L 115.25 111.76 L 114.55 112.79 L 113.79 113.79 L 112.96 114.74 L 112.06 115.64 L 111.10 116.48 L 110.08 117.26 L 109.00 117.99 L 107.88 118.64 L 106.70 119.22 L 105.49 119.73 L 104.24 120.16 L 102.95 120.52 L 101.64 120.79 L 100.30 120.97 L 98.95 121.07 L 97.58 121.08 L 96.21 121.00 L 94.84 120.83 L 93.48 120.58 L 92.12 120.23 L 90.79 119.79 L 89.48 119.27 L 88.20 118.66 L 86.95 117.96 L 85.75 117.18 L 84.59 116.32 L 83.48 115.38 L 82.43 114.36 L 81.45 113.28 L 80.53 112.12 L 79.68 110.91 L 78.91 109.63 L 78.22 108.30 L 77.62 106.92 L 77.10 105.50 L 76.67 104.04 L 76.34 102.54 L 76.10 101.02 L 75.96 99.49 L 75.93 97.93 L 75.99 96.37 L 76.15 94.81 L 76.41 93.26 L 76.78 91.71 L 77.25 90.19 L 77.81 88.70 L 78.48 87.23 L 79.24 85.81 L 80.10 84.43 L 81.05 83.10 L 82.09 81.83 L 83.21 80.63 L 84.42 79.49 L 85.70 78.43 L 87.05 77.45 L 88.47 76.55 L 89.95 75.75 L 91.49 75.04 L 93.08 74.42 L 94.71 73.91 L 96.38 73.50 L 98.08 73.20 L 99.81 73.01 L 101.55 72.94 L 103.30 72.97 L 105.05 73.12 L 106.80 73.38 L 108.53 73.75 L 110.24 74.24 L 111.93 74.84 L 113.58 75.55 L 115.19 76.37 L 116.75 77.29 L 118.25 78.32 L 119.69 79.45 L 121.06 80.67 L 122.35 81.99 L 123.56 83.39 L 124.68 84.87 L 125.71 86.43 L 126.64 88.06 L 127.47 89.75 L 128.19 91.50 L 128.80 93.30 L 129.29 95.15 L 129.66 97.03 L 129.91 98.93 L 130.04 100.86 L 130.05 102.80 L 129.93 104.74 L 129.68 106.68 L 129.31 108.61 L 128.81 110.51 L 128.19 112.39 L 127.44 114.23 L 126.58 116.03 L 125.59 117.77 L 124.50 119.45 L 123.29 121.07 L 121.97 122.61 L 120.56 124.07 L 119.04 125.44 L 117.44 126.71 L 115.74 127.88 L 113.97 128.94 L 112.13 129.90 L 110.23 130.73 L 108.26 131.44 L 106.25 132.03 L 104.20 132.48 L 102.11 132.81 L 100.00 133.00" />
	</g>
  </g>
</svg>
